# xmcd
# 
# Track frame offsets:
#     150
#     11574
#     26169
#     42187
#     59448
#     75421
#     86649
#     96443
#     120614
#     136262
#     161662
#     179399
#     197347
# 
# Disc length: 2867
# 
# Revision: 4
# Processed by: cddbd v1.5.2PL0 Copyright (c) Steve Scherf et al.
# Submitted via: fre:ac v1.0.31
# 
DISCID=a30b310d
DTITLE=BLUES BOX 2 - The Story of the Blues CD 2/3
DYEAR=2003
DGENRE=Blues
TTITLE0=Boom Boom
TTITLE1=Irresistible You
TTITLE2=River of no Return
TTITLE3=The Gypsy
TTITLE4=When the Road is Cold
TTITLE5=Turn Me On
TTITLE6=Dirt Floor
TTITLE7=Stranger Blues
TTITLE8=Crescent City
TTITLE9=Angel
TTITLE10=Smokestack Lightning
TTITLE11=Don't Touch Me
TTITLE12=When I was Young
EXTD=ID3G: 0
EXTT0=
EXTT1=
EXTT2=
EXTT3=
EXTT4=
EXTT5=
EXTT6=
EXTT7=
EXTT8=
EXTT9=
EXTT10=
EXTT11=
EXTT12=
PLAYORDER=
